<svg width="180" height="180" viewBox="0 0 180 180" fill="none" xmlns="http://www.w3.org/2000/svg">
<path fill-rule="evenodd" clip-rule="evenodd" d="M14.1682 116.079L47.2141 73.0469L56.2546 77.7088L77.7659 44.0002L91.1708 59.4206L96.1593 55.4757L115.488 79.1436L129.205 63.3647L167.55 116.079L130.608 71.2546L124.996 90.0809L130.14 104.963L97.0942 61.0342L96.7364 76.0228L115.488 116.079L80.4151 54.0409L90.5475 87.5707L76.3632 54.9375L68.5692 76.6334L70.1273 62.468L50.6428 113.569L52.9804 92.0529L44.8752 83.447L14.1682 116.079Z" fill="#011C40"/>
<path fill-rule="evenodd" clip-rule="evenodd" d="M178.659 122.81C126.338 82.0441 44.9015 138.088 11.9998 116.475C48.1733 147.103 132.724 95.3283 178.659 122.81Z" fill="#011C40"/>
<path fill-rule="evenodd" clip-rule="evenodd" d="M180 126.016C138.949 100.777 77.8961 135.9 46.6051 127.766C80.5117 143.645 143.635 108.463 180 126.016Z" fill="#011C40"/>
</svg>
